<svg version="1.1" id="Layer_1" xmlns="http://www.w3.org/2000/svg" xmlns:xlink="http://www.w3.org/1999/xlink" x="0px" y="0px"
	 width="100%" viewBox="0 0 476 380" enable-background="new 0 0 476 380" xml:space="preserve">
<path fill="#9C7762" opacity="1.000000" stroke="none" 
	d="
M280.000000,381.000000 
	C186.666672,381.000000 93.833359,381.000000 1.000025,381.000000 
	C1.000017,254.333359 1.000017,127.666718 1.000008,1.000059 
	C159.666626,1.000039 318.333252,1.000039 476.999908,1.000020 
	C476.999939,127.666603 476.999939,254.333206 476.999969,380.999908 
	C411.500000,381.000000 346.000000,381.000000 280.000000,381.000000 
M195.749542,336.777313 
	C199.864517,337.340698 203.964844,338.063080 208.096649,338.443848 
	C277.869263,344.873749 344.038513,299.819702 363.417786,232.492889 
	C365.323944,225.870590 365.862274,218.854584 367.213531,211.481888 
	C367.486725,210.008667 367.759918,208.535446 368.286072,206.389969 
	C368.622925,203.519333 368.959808,200.648712 369.459869,196.890717 
	C369.330841,190.940292 369.201813,184.989868 369.256073,178.473831 
	C369.080414,177.329086 368.904785,176.184357 368.695984,174.239746 
	C368.122345,170.499893 367.548706,166.760025 367.145020,162.532745 
	C366.860931,161.571793 366.576843,160.610840 366.216949,158.845535 
	C362.279877,140.379990 355.377960,123.013786 344.394562,107.726395 
	C307.555023,56.450825 257.555847,34.748680 195.052551,44.148193 
	C133.978470,53.332775 82.868004,104.867584 74.001381,166.034317 
	C65.762115,222.873260 84.171997,270.082855 128.411346,306.762665 
	C144.740448,320.301422 163.419586,329.727325 184.987213,334.538544 
	C187.647690,335.051208 190.308167,335.563873 193.606934,336.368469 
	C194.069382,336.407745 194.531830,336.446991 195.749542,336.777313 
z"/>
<path fill="#EFE3D8" opacity="1.000000" stroke="none" 
	d="
M366.975098,163.020172 
	C367.548706,166.760025 368.122345,170.499893 368.621490,174.921616 
	C368.722260,176.748810 368.897522,177.894135 369.072784,179.039444 
	C369.201813,184.989868 369.330841,190.940292 369.095215,197.573944 
	C368.498047,201.192184 368.265564,204.127213 368.033081,207.062241 
	C367.759918,208.535446 367.486725,210.008667 366.788635,211.749954 
	C365.915955,212.012863 365.468109,212.007690 364.986938,211.568863 
	C367.409546,193.831650 366.856018,176.619644 363.246429,159.524734 
	C346.207642,78.830338 262.425415,27.181971 183.181625,49.996460 
	C122.282349,67.529518 86.177452,108.842270 76.505783,171.604401 
	C67.848389,227.784714 96.172867,285.448547 144.897141,314.702545 
	C160.499756,324.070312 177.279877,330.174713 195.002350,334.236755 
	C194.999237,335.200806 194.996750,335.843536 194.994278,336.486237 
	C194.531830,336.446991 194.069382,336.407745 193.088318,336.033569 
	C189.846451,335.160706 187.123215,334.622772 184.399979,334.084839 
	C163.419586,329.727325 144.740448,320.301422 128.411346,306.762665 
	C84.171997,270.082855 65.762115,222.873260 74.001381,166.034317 
	C82.868004,104.867584 133.978470,53.332775 195.052551,44.148193 
	C257.555847,34.748680 307.555023,56.450825 344.394562,107.726395 
	C355.377960,123.013786 362.279877,140.379990 366.219482,159.598969 
	C366.473022,161.241669 366.724060,162.130920 366.975098,163.020172 
z"/>
<path fill="#EEE1D7" opacity="1.000000" stroke="none" 
	d="
M365.020294,212.002533 
	C365.468109,212.007690 365.915955,212.012863 366.699646,212.019669 
	C365.862274,218.854584 365.323944,225.870590 363.417786,232.492889 
	C344.038513,299.819702 277.869263,344.873749 208.096649,338.443848 
	C203.964844,338.063080 199.864517,337.340698 195.371918,336.631775 
	C194.996750,335.843536 194.999237,335.200806 195.443405,334.215820 
	C201.178024,334.431061 206.458557,335.266632 211.765808,335.503021 
	C264.649963,337.858795 307.050507,317.585815 338.874268,275.551636 
	C353.078278,256.790314 361.244202,235.218964 365.020294,212.002533 
z"/>
<path fill="#CEBFB4" opacity="1.000000" stroke="none" 
	d="
M368.159576,206.726105 
	C368.265564,204.127213 368.498047,201.192184 369.013611,198.017624 
	C368.959808,200.648712 368.622925,203.519333 368.159576,206.726105 
z"/>
<path fill="#EEE1D7" opacity="1.000000" stroke="none" 
	d="
M184.693604,334.311707 
	C187.123215,334.622772 189.846451,335.160706 192.769165,335.887573 
	C190.308167,335.563873 187.647690,335.051208 184.693604,334.311707 
z"/>
<path fill="#CEBFB4" opacity="1.000000" stroke="none" 
	d="
M369.164429,178.756638 
	C368.897522,177.894135 368.722260,176.748810 368.638062,175.321548 
	C368.904785,176.184357 369.080414,177.329086 369.164429,178.756638 
z"/>
<path fill="#CEBFB4" opacity="1.000000" stroke="none" 
	d="
M367.060059,162.776459 
	C366.724060,162.130920 366.473022,161.241669 366.257385,160.001160 
	C366.576843,160.610840 366.860931,161.571793 367.060059,162.776459 
z"/>
<path fill="#9D7865" opacity="1.000000" stroke="none" 
	d="
M364.986938,211.568863 
	C361.244202,235.218964 353.078278,256.790314 338.874268,275.551636 
	C307.050507,317.585815 264.649963,337.858795 211.765808,335.503021 
	C206.458557,335.266632 201.178024,334.431061 195.444031,333.894470 
	C177.279877,330.174713 160.499756,324.070312 144.897141,314.702545 
	C96.172867,285.448547 67.848389,227.784714 76.505783,171.604401 
	C86.177452,108.842270 122.282349,67.529518 183.181625,49.996460 
	C262.425415,27.181971 346.207642,78.830338 363.246429,159.524734 
	C366.856018,176.619644 367.409546,193.831650 364.986938,211.568863 
M345.933655,160.227661 
	C344.896301,156.630966 343.858917,153.034286 342.821564,149.437607 
	C342.247131,149.582779 341.672699,149.727951 341.098267,149.873138 
	C341.592010,152.194397 342.085724,154.515656 341.973328,156.524414 
	C334.901215,152.866272 336.938538,162.484772 331.934937,163.123169 
	C331.826538,161.480896 331.273651,159.833084 331.704590,158.504288 
	C333.938629,151.615387 333.534302,145.016937 331.273651,138.117004 
	C330.127563,134.619003 328.989990,132.060104 325.342224,131.063828 
	C321.594849,130.040344 320.355530,127.351944 319.862122,123.676437 
	C319.529297,121.197533 318.717773,118.120827 316.986084,116.622581 
	C312.708954,112.922119 311.359009,108.650360 312.804413,103.773132 
	C314.720978,105.654793 316.637573,107.536461 318.986694,109.842781 
	C315.549866,98.058655 283.531647,75.050613 262.317200,68.761795 
	C256.218140,67.218048 250.119095,65.674309 243.277771,63.820595 
	C225.753098,60.527157 208.415070,61.024437 191.260559,65.248672 
	C191.299866,65.814789 191.339157,66.380913 191.378464,66.947029 
	C195.587952,66.391441 199.797455,65.835846 203.893631,66.029633 
	C202.071854,74.915390 202.069107,74.814621 192.854263,75.065407 
	C190.289688,75.135201 187.582291,75.602577 185.234192,76.587738 
	C182.124512,77.892441 172.719788,77.141441 170.233887,74.494072 
	C170.442596,72.686348 169.788910,72.380524 167.229752,73.561188 
	C137.738510,87.166794 116.541435,109.012360 103.002167,138.416138 
	C102.546898,139.404861 102.506866,140.584793 102.273277,141.675598 
	C102.680649,141.816406 103.088013,141.957199 103.495377,142.098007 
	C104.629066,139.772797 105.733810,137.432938 106.901291,135.124832 
	C112.938095,123.189980 119.919167,111.926277 129.960022,103.676132 
	C128.976547,106.207314 128.259933,108.887810 126.946884,111.234581 
	C124.988602,114.734535 123.436447,117.917786 126.245682,121.820297 
	C126.842209,122.648964 126.230721,125.273201 125.306000,126.117386 
	C120.149353,130.824966 114.696861,135.206985 109.427521,139.794495 
	C108.754616,140.380325 108.325638,141.478271 108.180260,142.401413 
	C107.019966,149.769165 105.995979,157.158356 104.846291,164.527863 
	C104.143761,169.031128 104.473808,173.915237 99.712669,176.893341 
	C98.751015,177.494858 98.292831,179.546799 98.290146,180.931366 
	C98.272408,190.068573 98.363373,199.208633 98.647377,208.340637 
	C98.684807,209.544281 100.039993,210.696198 100.751114,211.892136 
	C101.859947,213.756943 103.615807,215.537247 103.915749,217.531128 
	C105.257759,226.452454 105.050171,235.572662 108.866814,244.134338 
	C110.351372,247.464569 111.740776,248.901901 115.414124,248.476837 
	C121.473175,247.775711 121.928185,248.703110 119.884895,254.541748 
	C119.376076,255.995667 120.156258,257.900696 120.343971,259.598358 
	C121.982613,259.330139 123.682816,259.247864 125.239609,258.732452 
	C126.396751,258.349335 127.367973,257.404694 128.421997,256.710175 
	C128.858368,258.450775 128.610428,259.377380 128.113617,260.142456 
	C124.501961,265.704163 125.942940,271.462830 132.247772,273.199615 
	C137.268845,274.582825 140.091766,276.965942 140.942734,282.033081 
	C141.105179,283.000458 142.188904,283.924225 143.036469,284.646362 
	C146.903854,287.941559 150.655579,291.418030 154.799149,294.331116 
	C159.200500,297.425385 163.963135,300.017151 168.654053,302.676544 
	C169.406891,303.103363 170.609879,302.714996 171.603760,302.741699 
	C175.080566,302.835114 178.577438,302.761993 182.022430,303.147583 
	C183.243652,303.284271 185.011795,304.315735 185.375443,305.346222 
	C187.071487,310.152679 190.410690,309.795746 194.281784,308.859344 
	C196.620377,308.293671 199.064148,307.856537 201.457062,307.873291 
	C213.390900,307.957001 225.323410,308.221954 237.256760,308.396759 
	C240.841370,308.449249 244.440536,308.228088 248.008438,308.480316 
	C251.073746,308.696991 254.047073,309.335022 255.713257,305.736542 
	C255.937088,305.253143 256.751587,304.741302 257.284576,304.749756 
	C262.538239,304.832855 267.790161,305.023285 272.515076,305.619690 
	C265.619476,308.162720 258.723877,310.705719 250.989609,313.361053 
	C245.301682,314.356812 239.613770,315.352600 232.996262,316.367523 
	C224.673035,316.342407 216.349823,316.317291 207.195389,316.080078 
	C201.133667,315.091156 195.071930,314.102234 188.345856,312.791992 
	C172.736359,308.417450 158.366486,301.307312 144.624161,292.785004 
	C157.665543,303.722900 172.505219,310.964050 189.755814,315.056976 
	C195.834091,316.039124 201.912369,317.021271 208.785019,318.202515 
	C217.189484,318.126282 225.593964,318.050079 234.857315,318.005280 
	C240.565201,316.976379 246.273071,315.947510 252.766495,314.881226 
	C263.042480,310.684052 273.318451,306.486847 284.000275,301.762634 
	C283.350708,301.557007 282.701141,301.351379 281.414642,301.404327 
	C279.297424,302.351990 277.180237,303.299652 275.136139,303.478088 
	C276.210968,301.516724 277.303436,299.564758 278.353699,297.590363 
	C278.934753,296.497986 280.016388,295.296417 279.887390,294.267548 
	C279.358276,290.047668 281.615509,290.289246 284.461029,290.994049 
	C291.637085,292.771545 291.834137,292.627777 292.753265,285.235687 
	C297.961609,285.128143 301.887115,283.071350 302.937592,277.298859 
	C303.081421,276.508453 304.195831,275.433746 304.996613,275.299316 
	C309.870972,274.481018 311.645477,270.429016 314.316284,267.128479 
	C316.198761,264.802155 319.099487,263.328003 321.209442,261.148041 
	C322.694427,259.613831 323.614655,257.532990 325.573120,254.464767 
	C333.245728,251.914154 332.533447,242.440826 335.593445,235.608658 
	C336.827850,232.852570 337.591034,232.132217 339.891754,232.734634 
	C336.922028,239.487946 333.952301,246.241272 330.571320,253.523514 
	C325.728241,260.711731 320.885162,267.899963 315.444336,275.375946 
	C305.536743,283.702423 295.629150,292.028900 285.454529,300.579803 
	C286.470734,300.319336 287.494965,300.325897 288.166443,299.842468 
	C293.937988,295.687042 299.941803,291.781372 305.275879,287.114838 
	C309.294006,283.599518 312.429535,279.075287 316.642365,274.868683 
	C321.830292,268.008392 327.018219,261.148102 332.675568,253.783752 
	C334.458923,250.404144 336.375610,247.087433 338.003510,243.634537 
	C347.228394,224.067764 350.301453,203.397263 348.995148,181.068481 
	C347.974762,174.386734 346.954376,167.704987 345.933655,160.227661 
M96.207161,167.366211 
	C97.913979,160.369537 99.620804,153.372849 101.327621,146.376175 
	C100.643967,146.221283 99.960320,146.066391 99.276665,145.911499 
	C97.563766,153.288849 95.850861,160.666199 94.001045,168.858978 
	C93.768417,181.563721 93.535789,194.268448 93.311882,207.641388 
	C93.587059,208.419022 94.023537,209.178375 94.114037,209.976944 
	C97.119514,236.496307 108.989288,258.732971 127.289375,278.609039 
	C131.706268,282.785736 136.123154,286.962402 140.540054,291.139099 
	C140.993210,290.647247 141.446381,290.155396 141.899551,289.663544 
	C137.303940,285.388184 132.708328,281.112793 127.771263,276.270081 
	C111.033501,257.786865 100.310402,236.348709 95.971222,211.745468 
	C95.690239,210.152267 94.846519,208.658340 94.815201,206.513977 
	C95.196320,193.660614 95.577446,180.807266 96.207161,167.366211 
M333.184143,132.341034 
	C334.972107,135.928741 336.760071,139.516464 338.548035,143.104172 
	C339.071686,142.819870 339.595306,142.535568 340.118958,142.251266 
	C336.126617,132.573044 331.412292,123.287514 324.856750,115.003448 
	C324.444122,115.222366 324.031464,115.441292 323.618835,115.660210 
	C326.706909,120.994568 329.794952,126.328926 333.184143,132.341034 
z"/>
<path fill="#9C7763" opacity="1.000000" stroke="none" 
	d="
M312.250519,103.342346 
	C311.359009,108.650360 312.708954,112.922119 316.986084,116.622581 
	C318.717773,118.120827 319.529297,121.197533 319.862122,123.676437 
	C320.355530,127.351944 321.594849,130.040344 325.342224,131.063828 
	C328.989990,132.060104 330.127563,134.619003 331.273651,138.117004 
	C333.534302,145.016937 333.938629,151.615387 331.704590,158.504288 
	C331.273651,159.833084 331.826538,161.480896 331.934937,163.123169 
	C336.938538,162.484772 334.901215,152.866272 342.409546,156.970032 
	C343.267151,158.610672 343.688568,159.805695 344.146851,161.394287 
	C344.596466,164.436478 345.009186,167.085098 345.194458,170.078369 
	C344.329407,173.646820 343.157562,176.870865 343.159058,180.094360 
	C343.162872,188.239655 343.623444,196.388565 344.066589,204.527039 
	C344.171936,206.462036 344.926483,208.361679 345.414032,210.564728 
	C345.358124,211.224182 345.270599,211.596497 344.884064,212.170563 
	C340.932190,218.256912 339.561859,224.676346 340.099182,231.663208 
	C340.104767,231.784988 339.987793,231.998932 339.987793,231.998932 
	C337.591034,232.132217 336.827850,232.852570 335.593445,235.608658 
	C332.533447,242.440826 333.245728,251.914154 325.573120,254.464767 
	C323.614655,257.532990 322.694427,259.613831 321.209442,261.148041 
	C319.099487,263.328003 316.198761,264.802155 314.316284,267.128479 
	C311.645477,270.429016 309.870972,274.481018 304.996613,275.299316 
	C304.195831,275.433746 303.081421,276.508453 302.937592,277.298859 
	C301.887115,283.071350 297.961609,285.128143 292.753265,285.235687 
	C291.834137,292.627777 291.637085,292.771545 284.461029,290.994049 
	C281.615509,290.289246 279.358276,290.047668 279.887390,294.267548 
	C280.016388,295.296417 278.934753,296.497986 278.353699,297.590363 
	C277.303436,299.564758 276.210968,301.516724 274.874878,304.031982 
	C274.089935,304.785034 273.566284,304.984161 273.042603,305.183289 
	C267.790161,305.023285 262.538239,304.832855 257.284576,304.749756 
	C256.751587,304.741302 255.937088,305.253143 255.713257,305.736542 
	C254.047073,309.335022 251.073746,308.696991 248.008438,308.480316 
	C244.440536,308.228088 240.841370,308.449249 237.256760,308.396759 
	C225.323410,308.221954 213.390900,307.957001 201.457062,307.873291 
	C199.064148,307.856537 196.620377,308.293671 194.281784,308.859344 
	C190.410690,309.795746 187.071487,310.152679 185.375443,305.346222 
	C185.011795,304.315735 183.243652,303.284271 182.022430,303.147583 
	C178.577438,302.761993 175.080566,302.835114 171.603760,302.741699 
	C170.609879,302.714996 169.406891,303.103363 168.654053,302.676544 
	C163.963135,300.017151 159.200500,297.425385 154.799149,294.331116 
	C150.655579,291.418030 146.903854,287.941559 143.036469,284.646362 
	C142.188904,283.924225 141.105179,283.000458 140.942734,282.033081 
	C140.091766,276.965942 137.268845,274.582825 132.247772,273.199615 
	C125.942940,271.462830 124.501961,265.704163 128.113617,260.142456 
	C128.610428,259.377380 128.858368,258.450775 128.421997,256.710175 
	C127.367973,257.404694 126.396751,258.349335 125.239609,258.732452 
	C123.682816,259.247864 121.982613,259.330139 120.343971,259.598358 
	C120.156258,257.900696 119.376076,255.995667 119.884895,254.541748 
	C121.928185,248.703110 121.473175,247.775711 115.414124,248.476837 
	C111.740776,248.901901 110.351372,247.464569 108.866814,244.134338 
	C105.050171,235.572662 105.257759,226.452454 103.915749,217.531128 
	C103.615807,215.537247 101.859947,213.756943 100.751114,211.892136 
	C100.039993,210.696198 98.684807,209.544281 98.647377,208.340637 
	C98.363373,199.208633 98.272408,190.068573 98.290146,180.931366 
	C98.292831,179.546799 98.751015,177.494858 99.712669,176.893341 
	C104.473808,173.915237 104.143761,169.031128 104.846291,164.527863 
	C105.995979,157.158356 107.019966,149.769165 108.180260,142.401413 
	C108.325638,141.478271 108.754616,140.380325 109.427521,139.794495 
	C114.696861,135.206985 120.149353,130.824966 125.306000,126.117386 
	C126.230721,125.273201 126.842209,122.648964 126.245682,121.820297 
	C123.436447,117.917786 124.988602,114.734535 126.946884,111.234581 
	C128.259933,108.887810 128.976547,106.207314 130.107025,102.967644 
	C141.533966,90.288506 154.670609,81.003532 169.949020,74.816559 
	C172.719788,77.141441 182.124512,77.892441 185.234192,76.587738 
	C187.582291,75.602577 190.289688,75.135201 192.854263,75.065407 
	C202.069107,74.814621 202.071854,74.915390 204.345428,65.585724 
	C205.864288,65.093216 206.931366,65.044609 208.377350,65.158493 
	C216.843201,65.203789 224.930145,65.086609 233.377762,64.945198 
	C235.162811,65.096985 236.587204,65.272987 238.089630,65.844421 
	C240.060257,68.002884 241.681473,70.483513 243.920563,71.330246 
	C246.229904,72.203545 249.179916,71.768425 251.779877,71.405739 
	C256.927094,70.687698 260.164703,72.961655 263.026642,76.998230 
	C264.062347,78.459030 266.953156,79.818626 268.541809,79.417900 
	C271.742798,78.610474 273.916534,79.412857 276.834198,80.677528 
	C281.794220,82.827477 285.775238,85.433914 288.246979,90.330444 
	C288.766785,91.360176 290.304565,91.874962 291.371185,92.629974 
	C293.980682,94.477066 296.800629,96.093361 299.146942,98.229721 
	C302.476715,101.261566 305.592499,104.195030 310.647980,101.502625 
	C311.321594,102.232880 311.786072,102.787613 312.250519,103.342346 
M302.818604,160.248245 
	C296.341492,154.297287 293.318970,154.480942 289.466064,160.592178 
	C288.543030,158.209579 287.656189,155.812134 286.686401,153.448746 
	C285.796173,151.279358 284.571503,149.671646 281.253754,151.142899 
	C280.842926,150.989548 280.432098,150.836182 279.643036,150.208496 
	C276.338318,147.107025 273.236542,149.552032 270.747833,151.202209 
	C269.456207,152.058640 269.555908,155.013382 268.900940,157.790405 
	C266.057281,164.879181 266.803894,172.107803 268.335052,179.920929 
	C268.549225,180.280380 268.763397,180.639832 269.343140,181.535034 
	C269.641083,182.337570 269.939056,183.140121 269.815430,184.535049 
	C268.849884,187.293457 265.468262,191.269363 269.569885,192.597137 
	C275.075409,194.379395 278.610321,197.358292 281.764771,201.860168 
	C283.753723,204.698700 288.840485,204.639648 290.621185,202.229889 
	C292.761841,199.333069 291.984100,196.658722 289.419373,194.307098 
	C288.078522,193.077667 286.802826,191.755798 285.642334,190.355774 
	C283.651428,187.953995 284.215424,185.302155 287.078430,185.073441 
	C293.025360,184.598358 293.918915,180.400406 295.777802,175.934769 
	C297.942291,174.493454 300.361359,173.318771 302.213440,171.550278 
	C305.219727,168.679626 305.490845,163.358704 302.818604,160.248245 
M193.548706,242.461243 
	C193.547333,236.794815 193.433411,231.124863 193.610153,225.463989 
	C193.666397,223.662796 194.495560,221.885757 194.971024,220.097656 
	C196.605392,221.034760 198.587387,221.645782 199.819977,222.959778 
	C211.220062,235.112854 222.450226,247.425308 233.852158,259.576599 
	C235.225723,261.040436 237.275543,262.665924 239.097809,262.774414 
	C246.907745,263.239502 254.750015,263.229675 262.579987,263.207550 
	C263.599426,263.204681 264.615814,262.125061 265.633606,261.544128 
	C264.723480,260.648682 263.960724,259.465973 262.876556,258.909729 
	C259.073608,256.958527 254.357315,256.059937 251.432831,253.255051 
	C240.999573,243.248322 231.130493,232.650879 221.114685,222.212891 
	C217.934540,218.898682 214.962875,215.384415 211.473022,211.489899 
	C226.400131,200.786987 237.392029,185.839310 255.440781,180.670944 
	C256.453613,180.380920 257.067017,178.695877 257.866302,177.660126 
	C256.814026,177.102478 255.766342,176.070740 254.708740,176.060440 
	C244.044312,175.956650 233.377350,175.960358 222.714020,176.124649 
	C221.586533,176.142029 220.477844,177.379013 219.360443,178.050186 
	C220.331329,178.946777 221.154144,180.282486 222.297379,180.668015 
	C229.239792,183.009262 229.997543,185.763092 224.606873,190.621613 
	C216.811905,197.647064 208.944412,204.596100 200.958588,211.402618 
	C199.211121,212.892014 196.835114,213.643997 193.370758,215.456421 
	C193.370758,179.404388 193.370758,144.912140 193.370758,110.251190 
	C184.624832,113.633560 176.747299,116.621124 168.941315,119.785194 
	C168.111343,120.121605 167.075424,121.644012 167.246628,122.344505 
	C167.481552,123.305580 168.700058,124.595764 169.634445,124.721176 
	C174.597794,125.387321 176.994217,128.209717 177.340820,133.020035 
	C177.568024,136.173111 177.889572,139.330841 177.893463,142.486816 
	C177.936493,177.319138 177.928925,212.151535 177.918610,246.983902 
	C177.918106,248.645981 177.810410,250.311859 177.672760,251.969330 
	C177.312012,256.312439 174.840408,258.543243 170.575394,258.878479 
	C169.247925,258.982849 167.853348,258.760834 166.599380,259.097565 
	C165.679932,259.344482 164.939880,260.259491 164.119888,260.876740 
	C164.889145,261.544922 165.653305,262.788788 166.428391,262.795624 
	C179.887527,262.914429 193.348007,262.881256 206.853683,262.881256 
	C208.196259,259.375427 206.269165,259.001862 203.469803,258.904968 
	C195.701370,258.636078 194.179153,257.088165 193.708725,249.438568 
	C193.586090,247.444443 193.597916,245.442047 193.548706,242.461243 
M287.930084,287.104889 
	C287.930084,287.104889 288.087646,286.898132 288.087646,286.898132 
	C288.087646,286.898132 287.862732,287.024780 287.930084,287.104889 
z"/>
<path fill="#E1C8B8" opacity="1.000000" stroke="none" 
	d="
M170.091461,74.655319 
	C154.670609,81.003532 141.533966,90.288506 130.103577,102.551819 
	C119.919167,111.926277 112.938095,123.189980 106.901291,135.124832 
	C105.733810,137.432938 104.629066,139.772797 103.495377,142.098007 
	C103.088013,141.957199 102.680649,141.816406 102.273277,141.675598 
	C102.506866,140.584793 102.546898,139.404861 103.002167,138.416138 
	C116.541435,109.012360 137.738510,87.166794 167.229752,73.561188 
	C169.788910,72.380524 170.442596,72.686348 170.091461,74.655319 
z"/>
<path fill="#E2C8B7" opacity="1.000000" stroke="none" 
	d="
M126.931839,278.045776 
	C108.989288,258.732971 97.119514,236.496307 94.114037,209.976944 
	C94.023537,209.178375 93.587059,208.419022 93.549103,207.335403 
	C93.786324,207.029419 94.264572,207.118225 94.264572,207.118225 
	C94.846519,208.658340 95.690239,210.152267 95.971222,211.745468 
	C100.310402,236.348709 111.033501,257.786865 127.751938,276.761658 
	C127.465691,277.517426 127.198761,277.781586 126.931839,278.045776 
z"/>
<path fill="#D9BFB0" opacity="1.000000" stroke="none" 
	d="
M339.939758,232.366791 
	C339.987793,231.998932 340.104767,231.784988 340.343689,231.339417 
	C342.116089,224.585510 343.649567,218.277176 345.183075,211.968826 
	C345.270599,211.596497 345.358124,211.224182 345.548004,210.184082 
	C346.145416,199.814987 346.640442,190.113678 347.423828,180.672546 
	C348.105103,181.269867 348.498016,181.607010 348.890930,181.944153 
	C350.301453,203.397263 347.228394,224.067764 338.003510,243.634537 
	C336.375610,247.087433 334.458923,250.404144 332.246490,253.811234 
	C331.539124,253.557343 331.260864,253.275955 330.982574,252.994583 
	C333.952301,246.241272 336.922028,239.487946 339.939758,232.366791 
z"/>
<path fill="#E2C8B7" opacity="1.000000" stroke="none" 
	d="
M312.527466,103.557739 
	C311.786072,102.787613 311.321594,102.232880 310.452057,101.251770 
	C308.633942,99.433228 307.262817,97.995354 305.801331,96.656082 
	C293.187592,85.097191 278.561951,76.884949 262.750854,70.355927 
	C262.884735,69.635666 262.937653,69.347443 262.990601,69.059227 
	C283.531647,75.050613 315.549866,98.058655 318.986694,109.842781 
	C316.637573,107.536461 314.720978,105.654793 312.527466,103.557739 
z"/>
<path fill="#DCC1B3" opacity="1.000000" stroke="none" 
	d="
M207.998444,64.996017 
	C206.931366,65.044609 205.864288,65.093216 204.402069,65.211044 
	C199.797455,65.835846 195.587952,66.391441 191.378464,66.947029 
	C191.339157,66.380913 191.299866,65.814789 191.260559,65.248672 
	C208.415070,61.024437 225.753098,60.527157 243.648636,64.269051 
	C244.018677,65.108864 244.017853,65.500229 243.586731,65.893112 
	C241.441467,65.746086 239.726532,65.597542 238.011597,65.448997 
	C236.587204,65.272987 235.162811,65.096985 232.970245,64.836197 
	C224.134201,64.832947 216.066315,64.914482 207.998444,64.996017 
z"/>
<path fill="#DFC6B5" opacity="1.000000" stroke="none" 
	d="
M189.017365,314.802551 
	C172.505219,310.964050 157.665543,303.722900 144.624161,292.785004 
	C158.366486,301.307312 172.736359,308.417450 188.680511,313.234192 
	C189.015900,314.051758 189.016632,314.427155 189.017365,314.802551 
z"/>
<path fill="#E1C8B5" opacity="1.000000" stroke="none" 
	d="
M315.957947,275.000183 
	C312.429535,279.075287 309.294006,283.599518 305.275879,287.114838 
	C299.941803,291.781372 293.937988,295.687042 288.166443,299.842468 
	C287.494965,300.325897 286.470734,300.319336 285.454529,300.579803 
	C295.629150,292.028900 305.536743,283.702423 315.723938,275.207886 
	C316.003540,275.039825 315.957947,275.000183 315.957947,275.000183 
z"/>
<path fill="#DCC5B4" opacity="1.000000" stroke="none" 
	d="
M272.778839,305.401489 
	C273.566284,304.984161 274.089935,304.785034 274.838318,304.416595 
	C277.180237,303.299652 279.297424,302.351990 281.983124,301.474548 
	C282.899200,301.793060 283.246796,302.041351 283.594421,302.289642 
	C273.318451,306.486847 263.042480,310.684052 252.338028,314.482239 
	C251.882462,313.805023 251.855362,313.526855 251.828278,313.248718 
	C258.723877,310.705719 265.619476,308.162720 272.778839,305.401489 
z"/>
<path fill="#EAD2C2" opacity="1.000000" stroke="none" 
	d="
M94.539886,206.816101 
	C94.264572,207.118225 93.786324,207.029419 93.544739,207.001312 
	C93.535789,194.268448 93.768417,181.563721 94.524559,168.426834 
	C95.351578,167.981079 95.655075,167.967484 95.958572,167.953903 
	C95.577446,180.807266 95.196320,193.660614 94.539886,206.816101 
z"/>
<path fill="#DFC6B5" opacity="1.000000" stroke="none" 
	d="
M333.033569,132.002167 
	C329.794952,126.328926 326.706909,120.994568 323.618835,115.660210 
	C324.031464,115.441292 324.444122,115.222366 324.856750,115.003448 
	C331.412292,123.287514 336.126617,132.573044 340.118958,142.251266 
	C339.595306,142.535568 339.071686,142.819870 338.548035,143.104172 
	C336.760071,139.516464 334.972107,135.928741 333.033569,132.002167 
z"/>
<path fill="#E1C8B5" opacity="1.000000" stroke="none" 
	d="
M330.776947,253.259048 
	C331.260864,253.275955 331.539124,253.557343 332.011780,254.063263 
	C327.018219,261.148102 321.830292,268.008392 316.300171,274.934448 
	C315.957947,275.000183 316.003540,275.039825 316.022797,275.063995 
	C320.885162,267.899963 325.728241,260.711731 330.776947,253.259048 
z"/>
<path fill="#DBC0AD" opacity="1.000000" stroke="none" 
	d="
M96.082870,167.660065 
	C95.655075,167.967484 95.351578,167.981079 94.593018,168.019119 
	C95.850861,160.666199 97.563766,153.288849 99.276665,145.911499 
	C99.960320,146.066391 100.643967,146.221283 101.327621,146.376175 
	C99.620804,153.372849 97.913979,160.369537 96.082870,167.660065 
z"/>
<path fill="#EAD2C2" opacity="1.000000" stroke="none" 
	d="
M208.026596,316.292175 
	C216.349823,316.317291 224.673035,316.342407 233.477966,316.764465 
	C233.972565,317.432220 233.985489,317.703033 233.998428,317.973846 
	C225.593964,318.050079 217.189484,318.126282 208.393478,317.817749 
	C208.010162,317.052734 208.018372,316.672455 208.026596,316.292175 
z"/>
<path fill="#E4CBBC" opacity="1.000000" stroke="none" 
	d="
M244.017029,65.891586 
	C244.017853,65.500229 244.018677,65.108864 244.019775,64.424034 
	C250.119095,65.674309 256.218140,67.218048 262.653900,68.910507 
	C262.937653,69.347443 262.884735,69.635666 262.354004,70.282463 
	C255.923157,69.057892 249.970093,67.474739 244.017029,65.891586 
z"/>
<path fill="#E4CBBC" opacity="1.000000" stroke="none" 
	d="
M348.943054,181.506317 
	C348.498016,181.607010 348.105103,181.269867 347.353210,180.357025 
	C346.470093,176.432114 345.945984,173.082916 345.421906,169.733719 
	C345.009186,167.085098 344.596466,164.436478 344.450867,161.396698 
	C345.123352,161.011429 345.528656,161.017334 345.933990,161.023239 
	C346.954376,167.704987 347.974762,174.386734 348.943054,181.506317 
z"/>
<path fill="#E4CBBC" opacity="1.000000" stroke="none" 
	d="
M207.610992,316.186157 
	C208.018372,316.672455 208.010162,317.052734 207.996277,317.718201 
	C201.912369,317.021271 195.834091,316.039124 189.386597,314.929749 
	C189.016632,314.427155 189.015900,314.051758 189.012695,313.394836 
	C195.071930,314.102234 201.133667,315.091156 207.610992,316.186157 
z"/>
<path fill="#DEC2B1" opacity="1.000000" stroke="none" 
	d="
M127.110603,278.327393 
	C127.198761,277.781586 127.465691,277.517426 127.922661,277.045349 
	C132.708328,281.112793 137.303940,285.388184 141.899551,289.663544 
	C141.446381,290.155396 140.993210,290.647247 140.540054,291.139099 
	C136.123154,286.962402 131.706268,282.785736 127.110603,278.327393 
z"/>
<path fill="#E7CFBF" opacity="1.000000" stroke="none" 
	d="
M234.427872,317.989563 
	C233.985489,317.703033 233.972565,317.432220 233.942749,316.754883 
	C239.613770,315.352600 245.301682,314.356812 251.408936,313.304871 
	C251.855362,313.526855 251.882462,313.805023 251.945251,314.500916 
	C246.273071,315.947510 240.565201,316.976379 234.427872,317.989563 
z"/>
<path fill="#D6BDAC" opacity="1.000000" stroke="none" 
	d="
M345.933838,160.625458 
	C345.528656,161.017334 345.123352,161.011429 344.414001,161.003128 
	C343.688568,159.805695 343.267151,158.610672 342.712585,157.126282 
	C342.085724,154.515656 341.592010,152.194397 341.098267,149.873138 
	C341.672699,149.727951 342.247131,149.582779 342.821564,149.437607 
	C343.858917,153.034286 344.896301,156.630966 345.933838,160.625458 
z"/>
<path fill="#E1C8B5" opacity="1.000000" stroke="none" 
	d="
M283.797363,302.026123 
	C283.246796,302.041351 282.899200,301.793060 282.301575,301.345276 
	C282.701141,301.351379 283.350708,301.557007 283.797363,302.026123 
z"/>
<path fill="#FAF7F5" opacity="1.000000" stroke="none" 
	d="
M193.548340,242.952347 
	C193.597916,245.442047 193.586090,247.444443 193.708725,249.438568 
	C194.179153,257.088165 195.701370,258.636078 203.469803,258.904968 
	C206.269165,259.001862 208.196259,259.375427 206.853683,262.881256 
	C193.348007,262.881256 179.887527,262.914429 166.428391,262.795624 
	C165.653305,262.788788 164.889145,261.544922 164.119888,260.876740 
	C164.939880,260.259491 165.679932,259.344482 166.599380,259.097565 
	C167.853348,258.760834 169.247925,258.982849 170.575394,258.878479 
	C174.840408,258.543243 177.312012,256.312439 177.672760,251.969330 
	C177.810410,250.311859 177.918106,248.645981 177.918610,246.983902 
	C177.928925,212.151535 177.936493,177.319138 177.893463,142.486816 
	C177.889572,139.330841 177.568024,136.173111 177.340820,133.020035 
	C176.994217,128.209717 174.597794,125.387321 169.634445,124.721176 
	C168.700058,124.595764 167.481552,123.305580 167.246628,122.344505 
	C167.075424,121.644012 168.111343,120.121605 168.941315,119.785194 
	C176.747299,116.621124 184.624832,113.633560 193.370758,110.251190 
	C193.370758,144.912140 193.370758,179.404388 193.370758,215.456421 
	C196.835114,213.643997 199.211121,212.892014 200.958588,211.402618 
	C208.944412,204.596100 216.811905,197.647064 224.606873,190.621613 
	C229.997543,185.763092 229.239792,183.009262 222.297379,180.668015 
	C221.154144,180.282486 220.331329,178.946777 219.360443,178.050171 
	C220.477844,177.379013 221.586533,176.142029 222.714020,176.124649 
	C233.377350,175.960358 244.044312,175.956650 254.708740,176.060440 
	C255.766342,176.070740 256.814026,177.102478 257.866302,177.660126 
	C257.067017,178.695877 256.453613,180.380920 255.440781,180.670944 
	C237.392029,185.839310 226.400131,200.786987 211.473022,211.489899 
	C214.962875,215.384415 217.934540,218.898682 221.114685,222.212891 
	C231.130493,232.650879 240.999573,243.248322 251.432831,253.255051 
	C254.357315,256.059937 259.073608,256.958527 262.876556,258.909729 
	C263.960724,259.465973 264.723480,260.648682 265.633606,261.544128 
	C264.615814,262.125061 263.599426,263.204681 262.579987,263.207550 
	C254.750015,263.229675 246.907745,263.239502 239.097809,262.774414 
	C237.275543,262.665924 235.225723,261.040436 233.852158,259.576599 
	C222.450226,247.425308 211.220062,235.112854 199.819977,222.959778 
	C198.587387,221.645782 196.605392,221.034760 194.971039,220.097656 
	C194.495560,221.885757 193.666397,223.662796 193.610153,225.463989 
	C193.433411,231.124863 193.547333,236.794815 193.548340,242.952347 
z"/>
<path fill="#9E7E6E" opacity="1.000000" stroke="none" 
	d="
M295.097168,176.097656 
	C293.918915,180.400406 293.025360,184.598358 287.078430,185.073441 
	C284.215424,185.302155 283.651428,187.953995 285.642334,190.355774 
	C286.802826,191.755798 288.078522,193.077667 289.419373,194.307098 
	C291.984100,196.658722 292.761841,199.333069 290.621185,202.229889 
	C288.840485,204.639648 283.753723,204.698700 281.764771,201.860168 
	C278.610321,197.358292 275.075409,194.379395 269.569885,192.597137 
	C265.468262,191.269363 268.849884,187.293457 270.272339,184.485611 
	C271.076843,186.097702 271.424438,187.759232 271.852905,189.807404 
	C273.119629,190.546844 275.463440,191.603836 277.425934,193.146027 
	C279.489777,194.767883 281.013275,197.093323 283.119873,198.638138 
	C284.202606,199.432114 286.040894,199.195755 288.201111,199.526596 
	C283.711426,193.921951 279.325623,189.736450 276.527527,184.673492 
	C271.411896,175.417160 268.042389,165.584839 274.532837,155.083923 
	C275.796265,154.359085 276.814117,153.812195 278.063843,153.533768 
	C281.328339,156.617538 281.554657,160.018555 280.602448,163.808365 
	C279.787018,167.053833 279.260773,170.371948 278.587280,173.755005 
	C284.167419,174.831100 284.776611,170.323486 287.482483,168.136368 
	C289.202667,166.715897 290.392059,164.970642 292.040283,164.170578 
	C293.794037,163.319275 295.982330,163.363098 298.123932,163.306824 
	C295.215851,168.745468 292.164734,173.893402 288.460999,180.142471 
	C290.891296,178.178070 292.622253,176.778961 294.539185,175.559250 
	C294.849213,175.858337 294.973175,175.977997 295.097168,176.097656 
z"/>
<path fill="#9D7865" opacity="1.000000" stroke="none" 
	d="
M243.586716,65.893112 
	C249.970093,67.474739 255.923157,69.057892 262.273071,70.714508 
	C278.561951,76.884949 293.187592,85.097191 305.801331,96.656082 
	C307.262817,97.995354 308.633942,99.433228 310.242889,101.076248 
	C305.592499,104.195030 302.476715,101.261566 299.146942,98.229721 
	C296.800629,96.093361 293.980682,94.477066 291.371185,92.629974 
	C290.304565,91.874962 288.766785,91.360176 288.246979,90.330444 
	C285.775238,85.433914 281.794220,82.827477 276.834198,80.677528 
	C273.916534,79.412857 271.742798,78.610474 268.541809,79.417900 
	C266.953156,79.818626 264.062347,78.459030 263.026642,76.998230 
	C260.164703,72.961655 256.927094,70.687698 251.779877,71.405739 
	C249.179916,71.768425 246.229904,72.203545 243.920563,71.330246 
	C241.681473,70.483513 240.060257,68.002884 238.089630,65.844421 
	C239.726532,65.597542 241.441467,65.746086 243.586716,65.893112 
z"/>
<path fill="#F7F1E9" opacity="1.000000" stroke="none" 
	d="
M274.287262,155.261856 
	C268.042389,165.584839 271.411896,175.417160 276.527527,184.673492 
	C279.325623,189.736450 283.711426,193.921951 288.201111,199.526596 
	C286.040894,199.195755 284.202606,199.432114 283.119873,198.638138 
	C281.013275,197.093323 279.489777,194.767883 277.425934,193.146027 
	C275.463440,191.603836 273.119629,190.546844 271.852905,189.807404 
	C271.424438,187.759232 271.076843,186.097702 270.483154,184.189423 
	C269.939056,183.140121 269.641083,182.337570 269.126404,180.933167 
	C268.626709,180.006302 268.343781,179.681305 268.060852,179.356308 
	C266.803894,172.107803 266.057281,164.879181 269.215515,157.232971 
	C270.347595,155.781509 271.165070,154.887512 272.291992,154.111847 
	C273.163361,154.574066 273.725311,154.917953 274.287262,155.261856 
z"/>
<path fill="#9D7865" opacity="1.000000" stroke="none" 
	d="
M345.194458,170.078369 
	C345.945984,173.082916 346.470093,176.432114 347.064819,180.096832 
	C346.640442,190.113678 346.145416,199.814987 345.516418,209.896942 
	C344.926483,208.361679 344.171936,206.462036 344.066589,204.527039 
	C343.623444,196.388565 343.162872,188.239655 343.159058,180.094360 
	C343.157562,176.870865 344.329407,173.646820 345.194458,170.078369 
z"/>
<path fill="#F6EFE7" opacity="1.000000" stroke="none" 
	d="
M287.153564,168.227463 
	C284.776611,170.323486 284.167419,174.831100 278.587280,173.755005 
	C279.260773,170.371948 279.787018,167.053833 280.602448,163.808365 
	C281.554657,160.018555 281.328339,156.617538 278.098022,153.177002 
	C277.945587,152.075958 277.990906,151.600128 278.368042,151.052658 
	C279.140320,150.881607 279.580780,150.782211 280.021271,150.682831 
	C280.432098,150.836182 280.842926,150.989548 281.814819,151.453186 
	C287.789368,156.610840 284.760071,162.151505 283.379181,168.143555 
	C284.882843,167.108582 285.916290,166.397263 287.019592,166.106018 
	C287.110840,167.093201 287.132202,167.660339 287.153564,168.227463 
z"/>
<path fill="#9E7E6E" opacity="1.000000" stroke="none" 
	d="
M286.949738,165.685944 
	C285.916290,166.397263 284.882843,167.108582 283.379181,168.143555 
	C284.760071,162.151505 287.789368,156.610840 282.143066,151.486847 
	C284.571503,149.671646 285.796173,151.279358 286.686401,153.448746 
	C287.656189,155.812134 288.543030,158.209579 289.928833,160.995605 
	C290.513855,161.523560 290.636108,161.648056 290.544434,161.991272 
	C289.203552,163.368668 288.076630,164.527298 286.949738,165.685944 
z"/>
<path fill="#9E7E6E" opacity="1.000000" stroke="none" 
	d="
M303.165955,160.830704 
	C305.490845,163.358704 305.219727,168.679626 302.213440,171.550278 
	C300.361359,173.318771 297.942291,174.493454 295.437500,176.016205 
	C294.973175,175.977997 294.849213,175.858337 294.768158,175.312347 
	C296.222748,173.301315 297.553131,171.633804 299.064270,170.150391 
	C301.609894,167.651413 303.832062,165.083160 302.942627,161.057526 
	C303.017181,160.982025 303.165955,160.830704 303.165955,160.830704 
z"/>
<path fill="#9D7865" opacity="1.000000" stroke="none" 
	d="
M208.377350,65.158493 
	C216.066315,64.914482 224.134201,64.832947 232.609589,64.860420 
	C224.930145,65.086609 216.843201,65.203789 208.377350,65.158493 
z"/>
<path fill="#9E7E6E" opacity="1.000000" stroke="none" 
	d="
M290.208130,161.212341 
	C293.318970,154.480942 296.341492,154.297287 302.992279,160.539474 
	C303.165955,160.830704 303.017181,160.982025 302.625916,161.013031 
	C301.602386,160.947159 300.970184,160.850281 300.046936,160.465866 
	C296.756714,160.709732 293.757568,161.241135 290.758392,161.772522 
	C290.636108,161.648056 290.513855,161.523560 290.208130,161.212341 
z"/>
<path fill="#9E7E6E" opacity="1.000000" stroke="none" 
	d="
M279.832153,150.445648 
	C279.580780,150.782211 279.140320,150.881607 278.012085,150.996063 
	C275.543762,152.005234 273.763153,152.999359 271.982574,153.993500 
	C271.165070,154.887512 270.347595,155.781509 269.278564,156.847870 
	C269.555908,155.013382 269.456207,152.058640 270.747833,151.202209 
	C273.236542,149.552032 276.338318,147.107025 279.832153,150.445648 
z"/>
<path fill="#9D7865" opacity="1.000000" stroke="none" 
	d="
M344.884064,212.170563 
	C343.649567,218.277176 342.116089,224.585510 340.338104,231.217651 
	C339.561859,224.676346 340.932190,218.256912 344.884064,212.170563 
z"/>
<path fill="#9D7865" opacity="1.000000" stroke="none" 
	d="
M287.896423,287.064819 
	C287.862732,287.024780 288.087646,286.898132 288.087646,286.898132 
	C288.087646,286.898132 287.930084,287.104889 287.896423,287.064819 
z"/>
<path fill="#9E7E6E" opacity="1.000000" stroke="none" 
	d="
M268.197937,179.638611 
	C268.343781,179.681305 268.626709,180.006302 268.943604,180.665283 
	C268.763397,180.639832 268.549225,180.280380 268.197937,179.638611 
z"/>
<path fill="#F7ECE0" opacity="1.000000" stroke="none" 
	d="
M300.337952,160.753403 
	C300.970184,160.850281 301.602386,160.947159 302.551331,161.088531 
	C303.832062,165.083160 301.609894,167.651413 299.064270,170.150391 
	C297.553131,171.633804 296.222748,173.301315 294.582153,175.132935 
	C292.622253,176.778961 290.891296,178.178070 288.460999,180.142471 
	C292.164734,173.893402 295.215851,168.745468 298.275146,163.003143 
	C298.968231,161.856949 299.653076,161.305176 300.337952,160.753403 
z"/>
<path fill="#E4D4C3" opacity="1.000000" stroke="none" 
	d="
M300.046936,160.465866 
	C299.653076,161.305176 298.968231,161.856949 298.132141,162.712402 
	C295.982330,163.363098 293.794037,163.319275 292.040283,164.170578 
	C290.392059,164.970642 289.202667,166.715897 287.482483,168.136368 
	C287.132202,167.660339 287.110840,167.093201 287.019592,166.106018 
	C288.076630,164.527298 289.203552,163.368668 290.544434,161.991272 
	C293.757568,161.241135 296.756714,160.709732 300.046936,160.465866 
z"/>
<path fill="#E6D6CB" opacity="1.000000" stroke="none" 
	d="
M272.291992,154.111832 
	C273.763153,152.999359 275.543762,152.005234 277.680298,151.067719 
	C277.990906,151.600128 277.945587,152.075958 277.866150,152.908539 
	C276.814117,153.812195 275.796265,154.359085 274.532837,155.083923 
	C273.725311,154.917953 273.163361,154.574066 272.291992,154.111832 
z"/>
</svg>